<svg width="777" height="777" viewBox="0 0 777 777" fill="none" xmlns="http://www.w3.org/2000/svg">
<path d="M777 388.5C777 603.063 603.063 777 388.5 777C173.937 777 0 603.063 0 388.5C0 173.937 173.937 0 388.5 0C603.063 0 777 173.937 777 388.5Z" fill="#0088CC"/>
<path d="M248.573 589.016C215.566 589.016 195.363 570.236 195.363 539.221C195.363 530.4 198.208 517.595 202.761 505.075L304.059 226.789C319.14 184.961 344.465 165.896 385.155 165.896C428.121 165.896 453.161 184.107 468.811 226.789L570.963 505.075C575.801 518.449 577.793 528.123 577.793 538.936C577.793 568.244 555.882 589.016 525.436 589.016C495.274 589.016 479.624 575.358 470.519 541.782L456.576 496.254H316.01L302.068 540.074C292.108 574.789 276.458 589.016 248.573 589.016ZM336.782 417.435H433.812L385.724 259.228H383.448L336.782 417.435Z" fill="white"/>
</svg>
