<svg xmlns="http://www.w3.org/2000/svg" width="32" height="32" fill="none"><g clip-path="url(#a)" filter="url(#b)"><g clip-path="url(#c)"><rect width="28" height="28" x="2" y="2" fill="#fff" rx="8"/><rect width="28" height="28" x="2" y="2" fill="url(#d)" rx="8"/><path stroke="#155EEF" stroke-width="6" d="M25.25 16.438c0 5.17-4.16 9.329-9.25 9.329s-9.25-4.159-9.25-9.33c0-5.17 4.16-9.329 9.25-9.329s9.25 4.159 9.25 9.33Z"/><g filter="url(#e)"><path fill="#fff" fill-opacity=".2" d="M2 16h28v1.2c0 4.48 0 6.72-.872 8.432a8 8 0 0 1-3.496 3.496C23.92 30 21.68 30 17.2 30h-2.4c-4.48 0-6.72 0-8.432-.872a8 8 0 0 1-3.496-3.496C2 23.92 2 21.68 2 17.2V16Z"/></g></g><rect width="27.8" height="27.8" x="2.1" y="2.1" stroke="#D0D5DD" stroke-width=".2" rx="7.9"/></g><defs><clipPath id="a"><path fill="#fff" d="M0 0h32v32H0z"/></clipPath><clipPath id="c"><rect width="28" height="28" x="2" y="2" fill="#fff" rx="8"/></clipPath><filter id="b" width="34" height="34" x="-1" y="0" color-interpolation-filters="sRGB" filterUnits="userSpaceOnUse"><feFlood flood-opacity="0" result="BackgroundImageFix"/><feColorMatrix in="SourceAlpha" result="hardAlpha" values="0 0 0 0 0 0 0 0 0 0 0 0 0 0 0 0 0 0 127 0"/><feOffset dy="1"/><feGaussianBlur stdDeviation="1"/><feColorMatrix values="0 0 0 0 0.0627451 0 0 0 0 0.0941176 0 0 0 0 0.156863 0 0 0 0.06 0"/><feBlend in2="BackgroundImageFix" result="effect1_dropShadow_174_21014"/><feColorMatrix in="SourceAlpha" result="hardAlpha" values="0 0 0 0 0 0 0 0 0 0 0 0 0 0 0 0 0 0 127 0"/><feOffset dy="1"/><feGaussianBlur stdDeviation="1.5"/><feColorMatrix values="0 0 0 0 0.0627451 0 0 0 0 0.0941176 0 0 0 0 0.156863 0 0 0 0.1 0"/><feBlend in2="effect1_dropShadow_174_21014" result="effect2_dropShadow_174_21014"/><feBlend in="SourceGraphic" in2="effect2_dropShadow_174_21014" result="shape"/></filter><filter id="e" width="38" height="24" x="-3" y="11" color-interpolation-filters="sRGB" filterUnits="userSpaceOnUse"><feFlood flood-opacity="0" result="BackgroundImageFix"/><feGaussianBlur in="BackgroundImageFix" stdDeviation="2.5"/><feComposite in2="SourceAlpha" operator="in" result="effect1_backgroundBlur_174_21014"/><feBlend in="SourceGraphic" in2="effect1_backgroundBlur_174_21014" result="shape"/></filter><linearGradient id="d" x1="16" x2="16" y1="2" y2="30" gradientUnits="userSpaceOnUse"><stop stop-color="#fff"/><stop offset="1" stop-color="#D0D5DD"/></linearGradient></defs></svg>