<svg width="30" height="30" viewBox="0 0 30 30" fill="none" xmlns="http://www.w3.org/2000/svg">
<path fill-rule="evenodd" clip-rule="evenodd" d="M2.196 27.8025C4.395 30 7.929 30 15 30C22.071 30 25.6065 30 27.8025 27.8025C30 25.608 30 22.071 30 15C30 7.929 30 4.3935 27.8025 2.196C25.608 0 22.071 0 15 0C7.929 0 4.3935 0 2.196 2.196C0 4.395 0 7.929 0 15C0 22.071 0 25.6065 2.196 27.8025ZM25.125 21C25.125 21.2984 25.0065 21.5845 24.7955 21.7955C24.5845 22.0065 24.2984 22.125 24 22.125H6C5.70163 22.125 5.41548 22.0065 5.2045 21.7955C4.99353 21.5845 4.875 21.2984 4.875 21C4.875 20.7016 4.99353 20.4155 5.2045 20.2045C5.41548 19.9935 5.70163 19.875 6 19.875H24C24.2984 19.875 24.5845 19.9935 24.7955 20.2045C25.0065 20.4155 25.125 20.7016 25.125 21ZM24 16.125C24.2984 16.125 24.5845 16.0065 24.7955 15.7955C25.0065 15.5845 25.125 15.2984 25.125 15C25.125 14.7016 25.0065 14.4155 24.7955 14.2045C24.5845 13.9935 24.2984 13.875 24 13.875H6C5.70163 13.875 5.41548 13.9935 5.2045 14.2045C4.99353 14.4155 4.875 14.7016 4.875 15C4.875 15.2984 4.99353 15.5845 5.2045 15.7955C5.41548 16.0065 5.70163 16.125 6 16.125H24ZM25.125 9C25.125 9.29837 25.0065 9.58452 24.7955 9.79549C24.5845 10.0065 24.2984 10.125 24 10.125H6C5.70163 10.125 5.41548 10.0065 5.2045 9.79549C4.99353 9.58452 4.875 9.29837 4.875 9C4.875 8.70163 4.99353 8.41548 5.2045 8.2045C5.41548 7.99353 5.70163 7.875 6 7.875H24C24.2984 7.875 24.5845 7.99353 24.7955 8.2045C25.0065 8.41548 25.125 8.70163 25.125 9Z" fill="#3A4362"/>
</svg>
