<svg width="21" height="15" viewBox="0 0 21 15" fill="none" xmlns="http://www.w3.org/2000/svg">
<path id="Vector" fill-rule="evenodd" clip-rule="evenodd" d="M14.25 13.125C14.25 13.4234 14.1315 13.7095 13.9205 13.9205C13.7095 14.1315 13.4234 14.25 13.125 14.25H7.125C6.82663 14.25 6.54048 14.1315 6.3295 13.9205C6.11853 13.7095 6 13.4234 6 13.125C6 12.8266 6.11853 12.5405 6.3295 12.3295C6.54048 12.1185 6.82663 12 7.125 12H13.125C13.4234 12 13.7095 12.1185 13.9205 12.3295C14.1315 12.5405 14.25 12.8266 14.25 13.125ZM16.125 8.25C16.4234 8.25 16.7095 8.13147 16.9205 7.92049C17.1315 7.70952 17.25 7.42337 17.25 7.125C17.25 6.82663 17.1315 6.54048 16.9205 6.32951C16.7095 6.11853 16.4234 6 16.125 6H4.125C3.82663 6 3.54048 6.11853 3.3295 6.32951C3.11853 6.54048 3 6.82663 3 7.125C3 7.42337 3.11853 7.70952 3.3295 7.92049C3.54048 8.13147 3.82663 8.25 4.125 8.25H16.125ZM20.25 1.125C20.25 1.42337 20.1315 1.70952 19.9205 1.92049C19.7095 2.13147 19.4234 2.25 19.125 2.25H1.125C0.826631 2.25 0.540483 2.13147 0.329505 1.92049C0.118527 1.70952 0 1.42337 0 1.125C0 0.826631 0.118527 0.540483 0.329505 0.329505C0.540483 0.118527 0.826631 0 1.125 0H19.125C19.4234 0 19.7095 0.118527 19.9205 0.329505C20.1315 0.540483 20.25 0.826631 20.25 1.125Z" fill="#000015"/>
</svg>
